# xmcd CD database file
#
# Track frame offsets:
#	150
#	15061
#	34973
#	58116
#	78116
#	95032
#	122901
#	135029
#	143807
#	160733
#	185709
#	207155
#	222418
#	234130
#
# Disc length: 3321 seconds
#
# Revision: 0
# Processed by: cddbd v1.5.2PL0 Copyright (c) Steve Scherf et al.
# Submitted via: CDex 1.50Beta6
#
DISCID=b40cf70e
DTITLE=December - Once Upon A December
DYEAR=2008
DGENRE=Jazz
TTITLE0=The First Noel
TTITLE1=Feliz Navidad
TTITLE2=Have Yourself A Merry Little Christmas
TTITLE3=Let It Snow, Let It Snow, Let It Snow
TTITLE4=Winter Wonderland
TTITLE5=The Little Drummer Boy
TTITLE6=White Christmas
TTITLE7=O Little Town Of Bethlehem
TTITLE8=I Will Be Home For Christmas
TTITLE9=Greensleeves
TTITLE10=Jingle Bell Rock
TTITLE11=Silent Night
TTITLE12=O Tannenbaum
TTITLE13=The Christmas Song
EXTD=YEAR: 2008
EXTT0=
EXTT1=
EXTT2=
EXTT3=
EXTT4=
EXTT5=
EXTT6=
EXTT7=
EXTT8=
EXTT9=
EXTT10=
EXTT11=
EXTT12=
EXTT13=
PLAYORDER=
